HIERARCHY
ROOT Hips
{
	OFFSET 0.000000 0.000000 0.000000
	CHANNELS 6 Xposition Yposition Zposition Xrotation Yrotation Zrotation
	JOINT LeftUpLeg_virtual
	{
		OFFSET 0.000000 0.000000 0.000000
		CHANNELS 3 Xrotation Yrotation Zrotation
		JOINT LeftUpLeg
		{
			OFFSET 15.427100 -6.655098 0.678600
			CHANNELS 3 Xrotation Yrotation Zrotation
			JOINT LeftLeg
			{
				OFFSET 4.081073 -39.591068 13.024000
				CHANNELS 3 Xrotation Yrotation Zrotation
				JOINT LeftFoot
				{
					OFFSET -4.081074 -37.707932 -15.979700
					CHANNELS 3 Xrotation Yrotation Zrotation
					JOINT LeftToeBase
					{
						OFFSET 5.346399 -15.068900 20.645000
						CHANNELS 3 Xrotation Yrotation Zrotation
						JOINT LeftToe_End
						{
							OFFSET 2.754700 0.931300 11.300900
							CHANNELS 3 Xrotation Yrotation Zrotation
							End Site
							{
								OFFSET 0 0 0
							}
						}
					}
				}
			}
		}
	}
	JOINT RightUpLeg_virtual
	{
		OFFSET 0.000000 0.000000 0.000000
		CHANNELS 3 Xrotation Yrotation Zrotation
		JOINT RightUpLeg
		{
			OFFSET -15.569500 -6.655098 0.678600
			CHANNELS 3 Xrotation Yrotation Zrotation
			JOINT RightLeg
			{
				OFFSET -4.081825 -39.591045 13.023800
				CHANNELS 3 Xrotation Yrotation Zrotation
				JOINT RightFoot
				{
					OFFSET 4.081824 -37.707954 -15.979600
					CHANNELS 3 Xrotation Yrotation Zrotation
					JOINT RightToeBase
					{
						OFFSET -5.346400 -15.068900 20.645000
						CHANNELS 3 Xrotation Yrotation Zrotation
						JOINT RightToe_End
						{
							OFFSET -2.754700 0.931300 11.300900
							CHANNELS 3 Xrotation Yrotation Zrotation
							End Site
							{
								OFFSET 0 0 0
							}
						}
					}
				}
			}
		}
	}
	JOINT Spine_virtual
	{
		OFFSET 0.000000 0.000000 0.000000
		CHANNELS 3 Xrotation Yrotation Zrotation
		JOINT Spine
		{
			OFFSET -0.279200 12.230698 -2.892100
			CHANNELS 3 Xrotation Yrotation Zrotation
			JOINT Spine1
			{
				OFFSET -0.232667 10.192268 -1.242267
				CHANNELS 3 Xrotation Yrotation Zrotation
				JOINT Spine1_split
				{
					OFFSET -0.232667 10.192268 -1.242267
					CHANNELS 3 Xrotation Yrotation Zrotation
					JOINT Spine2
					{
						OFFSET -0.232667 10.192268 -1.242267
						CHANNELS 3 Xrotation Yrotation Zrotation
						JOINT Neck_virtual
						{
							OFFSET 0.000000 0.000000 0.000000
							CHANNELS 3 Xrotation Yrotation Zrotation
							JOINT Neck
							{
								OFFSET -0.418800 17.814194 8.416900
								CHANNELS 3 Xrotation Yrotation Zrotation
								JOINT Head
								{
									OFFSET 0.000000 7.031097 3.806800
									CHANNELS 3 Xrotation Yrotation Zrotation
									JOINT HeadTop_End
									{
										OFFSET 0.000000 24.646606 12.978600
										CHANNELS 3 Xrotation Yrotation Zrotation
										End Site
										{
											OFFSET 0 0 0
										}
									}
								}
							}
						}
						JOINT LeftShoulder_virtual
						{
							OFFSET 0.000000 0.000000 0.000000
							CHANNELS 3 Xrotation Yrotation Zrotation
							JOINT LeftShoulder
							{
								OFFSET 8.476499 7.247704 -3.868750
								CHANNELS 3 Xrotation Yrotation Zrotation
								JOINT LeftShoulder_split
								{
									OFFSET 8.476499 7.247704 -3.868750
									CHANNELS 3 Xrotation Yrotation Zrotation
									JOINT LeftArm
									{
										OFFSET 9.308998 -2.777710 0.208600
										CHANNELS 3 Xrotation Yrotation Zrotation
										JOINT LeftForeArm
										{
											OFFSET 29.972298 0.000000 0.000000
											CHANNELS 3 Xrotation Yrotation Zrotation
											JOINT LeftHand
											{
												OFFSET 26.026505 0.000000 0.000000
												CHANNELS 3 Xrotation Yrotation Zrotation
												End Site
												{
													OFFSET 0 0 0
												}
											}
										}
									}
								}
							}
						}
						JOINT RightShoulder_virtual
						{
							OFFSET 0.000000 0.000000 0.000000
							CHANNELS 3 Xrotation Yrotation Zrotation
							JOINT RightShoulder
							{
								OFFSET -7.570500 7.247704 -3.868750
								CHANNELS 3 Xrotation Yrotation Zrotation
								JOINT RightShoulder_split
								{
									OFFSET -7.570500 7.247704 -3.868750
									CHANNELS 3 Xrotation Yrotation Zrotation
									JOINT RightArm
									{
										OFFSET -9.308998 -2.777710 0.208500
										CHANNELS 3 Xrotation Yrotation Zrotation
										JOINT RightForeArm
										{
											OFFSET -29.972300 0.000000 0.000000
											CHANNELS 3 Xrotation Yrotation Zrotation
											JOINT RightHand
											{
												OFFSET -26.026505 0.000000 0.000000
												CHANNELS 3 Xrotation Yrotation Zrotation
												End Site
												{
													OFFSET 0 0 0
												}
											}
										}
									}
								}
							}
						}
					}
				}
			}
		}
	}
}
MOTION
Frames: 4
Frame Time: 0.03333333
-0.040678 69.046463 -84.942703 0.000000 0.000000 0.000000 42.450585 -71.823961 32.708584 -56.759258 -13.563852 27.288568 40.343578 -5.084538 10.379581 12.199106 -2.802972 -17.787619 -4.261627 1.168999 1.332239 0.000000 0.000000 0.000000 42.880723 -72.724316 34.487893 -10.503759 8.526902 -37.325785 38.944417 -0.858308 -4.402316 1.008128 -30.862032 38.481965 2.526060 0.923338 -0.798558 0.000000 0.000000 0.000000 38.910051 -67.621741 29.232735 2.657780 11.783938 -3.336310 -2.687540 5.113741 0.248608 0.905844 -3.255589 1.528925 0.000000 0.000000 0.000000 -1.402308 3.049657 0.898069 10.332831 4.391799 -5.926466 3.988200 17.555992 9.509301 0.000000 0.000000 0.000000 -2.313494 3.533703 0.771756 3.140430 2.791802 -12.269302 4.609687 0.729097 1.619947 -51.343615 -30.903983 -49.489106 -4.392042 -77.168816 -2.247541 0.000000 0.000000 0.000000 -2.324004 3.176276 0.777519 -13.717827 -1.551308 -1.555043 -2.059585 -2.041666 -1.297817 -105.472519 35.335943 120.534575 -2.421050 28.181441 2.376447 0.000000 0.000000 0.000000 
1.211389 70.157822 -92.918198 0.000000 0.000000 0.000000 46.270150 -72.479283 36.405130 -56.033629 -12.202010 27.192636 35.256993 -3.226437 9.907552 17.157917 -1.379757 -16.280046 -4.436160 1.095681 0.250283 0.000000 0.000000 0.000000 44.628856 -73.380411 36.516056 -18.125370 6.574963 -32.729034 44.778170 -2.178001 -1.886787 -2.566520 -28.845849 36.448102 3.151972 0.890134 -1.254003 0.000000 0.000000 0.000000 41.013052 -68.591266 31.553568 2.419618 10.632386 -3.301017 -2.686246 4.464510 0.418434 0.740933 -2.417191 1.285298 0.000000 0.000000 0.000000 -1.297335 2.413961 1.128454 10.573637 4.889537 -6.056175 3.641728 18.673884 8.825083 0.000000 0.000000 0.000000 -2.188976 2.926644 1.008547 3.188696 2.865618 -12.314513 5.711628 1.136256 1.401741 -50.145586 -31.029201 -49.400699 -4.026529 -77.988821 -1.904282 0.000000 0.000000 0.000000 -2.222378 2.509548 0.946141 -13.778986 -1.685378 -2.063339 -1.272976 -1.668251 -1.633144 -105.280420 35.340242 120.526898 -2.668680 28.262908 2.536264 0.000000 0.000000 0.000000 
2.475474 71.265350 -99.820740 0.000000 0.000000 0.000000 49.227400 -72.816216 39.092892 -57.506983 -10.668483 26.297234 33.914614 -1.719235 8.282614 19.815349 -0.747288 -13.623912 -4.961459 0.984311 -0.406725 0.000000 0.000000 0.000000 46.160713 -73.610117 37.970569 -24.034326 2.970644 -27.770707 48.074594 -3.282097 0.276756 -6.326987 -26.939270 34.437933 3.014062 0.876635 -1.288264 0.000000 0.000000 0.000000 43.779262 -69.282953 33.897713 2.043389 9.494127 -3.020210 -2.635853 3.677790 0.606215 0.586527 -1.406376 0.928354 0.000000 0.000000 0.000000 -1.260491 1.598062 1.363602 10.719888 5.358026 -6.184796 3.079999 19.965411 8.139818 0.000000 0.000000 0.000000 -2.093909 2.175075 1.231492 3.236464 2.962340 -12.286167 6.462301 1.884735 1.181556 -49.308044 -31.353174 -49.290709 -2.972330 -78.402416 -0.949142 0.000000 0.000000 0.000000 -2.149516 1.724124 1.129294 -13.906657 -1.817361 -2.619493 -0.665182 -1.462241 -2.074576 -105.862536 35.389314 121.117067 -3.012563 27.136217 2.670067 0.000000 0.000000 0.000000 
3.335915 72.237206 -105.107483 0.000000 0.000000 0.000000 50.409839 -72.540516 40.084259 -60.442338 -9.091576 24.570617 35.897046 -0.977822 5.969743 19.879086 -0.898964 -10.698472 -5.247553 0.829933 -0.414403 0.000000 0.000000 0.000000 46.393148 -73.181215 38.051500 -27.768704 -1.392256 -23.630062 49.209788 -4.382551 1.958747 -9.936383 -25.542788 32.388487 2.651099 0.855786 -0.928766 0.000000 0.000000 0.000000 46.184387 -69.713979 35.740508 1.647959 8.503673 -2.660377 -2.524354 2.955639 0.751203 0.506081 -0.452239 0.713068 0.000000 0.000000 0.000000 -1.307818 0.814996 1.509603 10.720859 5.722826 -6.306797 2.411304 21.138631 7.653936 0.000000 0.000000 0.000000 -2.034500 1.454423 1.360474 3.286930 3.166606 -12.145954 6.784770 2.912538 1.052652 -48.979003 -31.645359 -49.186409 -1.567111 -78.504979 0.305479 0.000000 0.000000 0.000000 -2.101019 1.004467 1.248790 -14.101589 -2.065872 -3.143747 -0.214600 -1.493653 -2.362775 -107.109141 35.615543 122.405063 -3.309203 25.546620 2.699735 0.000000 0.000000 0.000000 
